<svg version="1" xmlns="http://www.w3.org/2000/svg" width="761.333" height="761.333" viewBox="0 0 571.000000 571.000000"><path d="M37.1 1.6c-3 .8-7.7 2.7-10.5 4.2-7.1 3.7-17.7 14.5-21 21.3C-.4 39.4 0 21.9 0 285.5c0 263.6-.4 246.1 5.6 258.4 3.3 6.8 13.9 17.6 21 21.3 11.5 6.2-6.3 5.8 258.9 5.8s247.4.4 258.9-5.8c7.1-3.7 17.7-14.5 21-21.3 5.9-12.3 5.6 1.8 5.5-221.9V116.5l-2.7 3.4c-2.4 3-33.7 37-53.1 57.7-14.2 15.1-18.2 19.4-32.6 34.9-8.1 8.8-18.8 20.2-23.7 25.4l-8.8 9.4 1.9 3.3c1.1 1.8 7.9 16 15.2 31.6 7.2 15.6 16.2 34.4 19.9 41.8 3.7 7.4 8.4 17.4 10.4 22.3 2 4.8 6.7 14.9 10.5 22.5 3.8 7.5 9.2 18.9 12.1 25.2 2.8 6.3 9.4 20 14.5 30.5 19 38.9 20.3 44 14.7 56-5.2 10.8-13.1 15.4-31.6 18.1-21.3 3.1-25.3 3.6-33.1 4.5-8.3.9-14.9 1.7-55 7-13.2 1.7-27.9 3.3-32.7 3.6-8.2.5-9 .4-13.5-2.2-6.9-4-9.1-6.3-12.4-12.7-5.5-10.8-3.3-24.5 5.2-32.5 4.7-4.4 11.3-7.1 20.5-8.3 18.7-2.4 31.7-4.1 43.4-5.5 6.9-.9 15.7-2 19.5-2.5 3.9-.5 10.2-1.2 14-1.6 11.8-1.1 11.7.4 1.5-19.9-5-9.9-10.8-22.3-13.1-27.5-2.2-5.2-7.4-16-11.4-24s-9.9-20.4-13-27.5c-6.5-14.8-14-30.1-15.5-32-.5-.6-2.3-4.3-3.9-8.1s-4.1-9.5-5.6-12.7l-2.7-5.8-3.9 4.2c-2.1 2.3-6.4 6.9-9.6 10.3-3.2 3.4-10.7 11.6-16.8 18.1-6 6.5-15 16.2-20 21.5-4.9 5.2-14.8 15.8-21.9 23.5-7.1 7.7-16.8 17.8-21.6 22.5l-8.6 8.5-42 21.9c-23 12.1-45 23.8-48.9 26-6.6 3.9-7.4 4.1-15 4.1-7 0-8.7-.4-13.3-2.9-6-3.3-9.7-7.6-14.3-16.2l-3.1-5.9.6-14c1.1-23.5 2.4-51.3 3.2-64.7l.7-12.7-4.9 1.6c-21.6 6.7-26.3 6.8-36.4.2-5.3-3.4-6.5-4.8-9.3-10.7-5.7-12-3.5-24.5 5.7-33 5-4.6 7.8-5.6 29.6-11.2 9.1-2.3 20.1-5.3 24.5-6.5 4.4-1.3 12-3.4 17-4.6 15.5-3.8 15.9-4.1 27.6-19.4 5.7-7.5 11.1-14.6 11.9-15.8.8-1.2 4.1-5.6 7.3-9.7s8.2-10.9 11.2-15 9.3-12.4 13.9-18.5c4.7-6 8.3-11.1 8.1-11.3-.4-.4-20.4 2.1-31.5 4-3.6.6-9.6 1.4-13.5 1.8-3.8.4-11.7 1.4-17.5 2.3-5.8.9-16.1 2.3-23 3.2-6.9.8-16.8 2.2-22 3-5.2.8-16.7 2.4-25.5 3.5-18.9 2.4-35.1 4.5-45.5 6-4.1.6-11.1 1.5-15.5 2-14.2 1.6-15.7 2-15 3.8.4 1 2 7.1 3.6 13.7s4 16 5.4 21c1.4 4.9 3.9 15.1 5.6 22.5 1.7 7.4 3.9 16.6 5 20.5 1.9 6.9 6.3 24.4 12 48 1.7 6.6 4.3 16.9 5.9 23 1.6 6 4.3 16.8 5.9 24 1.6 7.1 3.6 15 4.4 17.5.8 2.5 2.7 9.9 4.2 16.5s3.5 14.7 4.6 18c1 3.3 3.1 12.1 4.8 19.5 3.2 13.9 8.6 33.9 9.6 34.8.3.3 4.7-.2 9.7-1.2 5.1-1 13.8-2.4 19.3-3.2 5.5-.9 16.1-2.6 23.5-3.9 7.4-1.3 16.2-2.7 19.5-3 3.3-.4 10.9-1.5 16.9-2.6 15.8-2.8 21.4-2.5 28.6 1.1 12.8 6.5 18.3 21.2 13 35.4-2.4 6.2-7.8 11.8-14.4 14.7-2.3 1-9.4 2.5-15.7 3.4-6.3.8-17.7 2.6-25.4 4-7.7 1.3-17.4 2.8-21.5 3.3-10.1 1.3-37.9 5.8-52 8.5-15.7 2.9-25.1 2.9-31-.2-7.9-4.1-14.9-10-17.1-14.4-2.4-4.5-4.9-13.3-10.8-38.2-6.7-27.8-11.2-45.9-12.8-50.5-.8-2.5-1.8-6.3-2.3-8.5-2.3-10.8-7.1-30.8-8.4-34.7-.7-2.3-2.3-8.8-3.5-14.3-1.3-5.5-3.1-12.9-4.2-16.5-3.2-10.8-3.8-13-6.4-25-1.4-6.3-2.9-13.1-3.5-15-2.3-8.5-10-39.2-13.6-54-1.4-5.8-3.7-14.6-5.1-19.5-2.6-9.6-2.7-10-6.6-27-1.4-6.1-3.7-15.3-5.1-20.5-1.9-7-2.6-11.9-2.6-18.5 0-8.5.2-9.3 3.6-15 7.6-12.8 13.1-16 30.3-18 6.4-.8 14.8-1.8 18.6-2.4 3.9-.5 12.6-1.7 19.5-2.6 6.9-.8 17.2-2.2 23-3 21.3-3 38.8-5.4 50.5-7 6.6-.9 18.1-2.4 25.5-3.5 17.9-2.5 33.7-4.6 49-6.5 6.9-.8 17.2-2.2 23-3 5.8-.8 13.9-1.9 18-2.4 7.4-1 13.2-1.8 32.5-4.6 5.5-.8 13-1.7 16.8-2.1 6.6-.6 6.8-.8 10.3-5.3 18.2-23.7 22.6-29.7 23.6-31.4.5-1.1 4-5.7 7.7-10.3 3.6-4.5 8.9-11.3 11.7-15.1 24.4-33 32.7-42.6 39.9-46.7 2.6-1.5 10.6-3.6 23-6.1C449 2.5 457.7.6 457.9.4c.2-.2-93.1-.4-207.5-.3C72 .1 41.7.3 37.1 1.6zm187.1 197.7c7.5 3.3 12.1 8.1 14.7 15.2 5.2 13.9-.2 28.6-12.8 34.9-4.6 2.3-33.2 8.4-49.6 10.6-4.4.5-17.4 2.9-29 5.1-15.6 3-22.5 4-26.8 3.6-10.2-.9-18.7-7.7-22.6-18.2-2.5-6.8-2.7-11.5-.4-17.5 5.5-14.8 10.4-17.7 36.9-22 10.4-1.7 21.2-3.5 23.9-4.1 30.8-6.3 50-9.7 54.7-9.8 4-.1 7.3.6 11 2.2zM503.5 1.7c1.7.8 5.5 3.1 8.5 5.1 14.5 9.3 35.9 23.4 39.5 25.9 5.5 3.9 10.7 14.6 14.5 30.4 4.9 20 4.8 20 4.9-.6.1-20.6-.7-25.4-5.5-35.4-3.3-6.8-13.9-17.6-21-21.3C536.1 1.3 529 0 514 0c-12.9.1-13.4.1-10.5 1.7z"/><path d="M477 53c-1.4.4-7 1.8-12.5 3-14.3 3.1-21.8 5-22.4 5.6-.8.8 2.5 3.5 10.8 8.8 4.4 2.8 13.3 8.9 19.8 13.6 9.7 7 22.7 16.1 30.8 21.5 1.2.8 2.8-.4 7.5-5.5 3.8-4.1 5.8-7.1 5.4-8-.3-.8-1.8-5.7-3.2-10.8-2.4-8.4-3-9.5-6.2-11.4-1.9-1.2-7.3-4.7-12-7.8-14.3-9.3-15.2-9.8-18-9zM371.6 155.2c-19.9 26.3-24.3 32.1-29.5 38.8-5.4 6.9-16.2 21.3-19.6 26-1.1 1.5-4.4 5.9-7.3 9.6-7 9-24.8 32.2-29 37.9l-3.3 4.4 3.6 4.8c2 2.6 5 6.7 6.7 8.9 3.4 4.7 3.1 4.6 27.8 6l11.5.6 9.5-10.3c5.2-5.7 12.8-14 17.1-18.4 4.2-4.4 10.6-11.4 14.4-15.5 3.7-4.1 8.1-8.8 9.9-10.5 1.7-1.6 4.7-4.8 6.6-7.1 1.9-2.3 12.3-13.6 23-25.1 25-26.6 25-26.6 25-27.5 0-.4-.9-1.2-2-1.8-1.1-.6-7.8-5.2-14.9-10.3-27.1-19.2-35-24.7-36.5-25.3-1-.4-5 4.2-13 14.8zM245.4 320.9c-4.2 5.3-12 15.7-13.5 18.1-1.3 2-1.8 6.7-2.4 20.9l-.7 18.4 14.8-7.8c27.3-14.2 30.9-16.4 35.2-20.8l4.3-4.4-4.1-.7c-5.2-.8-10.9-3.7-15.2-7.6-1.8-1.6-4-3.6-4.8-4.3-.8-.7-3.7-4.2-6.5-7.8l-5-6.6-2.1 2.6z"/></svg>